<svg version="1.1" id="Layer_1" xmlns="http://www.w3.org/2000/svg" xmlns:xlink="http://www.w3.org/1999/xlink" x="0px" y="0px"
	 width="100%" viewBox="0 0 496 496" enable-background="new 0 0 496 496" xml:space="preserve">
<path fill="#000000" opacity="1.000000" stroke="none" 
	d="
M430.178467,331.025940 
	C411.578308,372.006165 382.913879,403.423645 343.845856,424.844604 
	C308.471985,444.240021 270.584839,452.077728 230.163452,447.604675 
	C204.802719,444.798218 180.859848,437.646790 158.573639,425.616760 
	C138.106216,414.568512 120.086723,400.119019 104.687965,382.477325 
	C80.931541,355.260559 65.322266,324.100800 58.369438,288.635773 
	C42.875370,209.603470 77.197830,126.921570 147.078339,83.360214 
	C183.073029,60.922245 222.274292,50.539036 264.256714,54.052067 
	C334.286194,59.912045 387.426941,93.703842 422.329742,155.015396 
	C437.041077,180.857834 444.566254,208.901016 446.490692,238.669434 
	C448.565430,270.763123 442.781250,301.248627 430.178467,331.025940 
M393.822388,218.584930 
	C383.682007,174.741867 359.125427,141.597534 319.572845,120.100052 
	C292.763855,105.528946 263.896271,100.814011 233.549210,104.105766 
	C200.073883,107.736855 171.420029,121.657997 147.969452,145.327194 
	C115.419434,178.180649 101.353149,218.192123 105.132332,264.393005 
	C107.774734,296.696655 119.572685,325.470642 141.285080,349.222443 
	C180.695526,392.334656 229.521179,408.918640 286.800690,394.888245 
	C363.377625,376.131012 410.882599,297.089630 393.822388,218.584930 
M88.657104,276.300964 
	C90.267365,275.744598 92.449883,276.609100 93.562462,274.129608 
	C90.094170,269.951965 85.129936,274.689362 81.102509,272.346954 
	C83.192818,268.254608 88.430847,267.953888 90.296242,263.813171 
	C87.756599,260.108887 82.460175,260.579285 79.357430,256.747803 
	C83.331047,254.803162 88.026512,256.779541 92.527184,252.767731 
	C85.479462,251.588638 79.736259,252.151337 73.991493,253.107010 
	C72.548218,253.347122 70.766960,253.377457 70.533432,255.321365 
	C70.305176,257.221466 71.983345,257.769012 73.310623,258.391113 
	C77.015419,260.127625 81.022026,261.333130 84.153976,264.514374 
	C81.743912,267.690918 78.196251,269.013733 75.394371,271.274658 
	C73.868782,272.505737 71.560699,273.439850 72.321442,275.862457 
	C73.236816,278.777527 75.939095,277.580627 77.905907,277.490417 
	C81.220428,277.338379 84.517952,276.815796 88.657104,276.300964 
M294.638000,81.560104 
	C292.829468,73.806061 285.047729,68.509384 277.078156,69.524216 
	C275.420685,69.735268 274.796906,70.765602 274.525574,72.134804 
	C273.459259,77.515968 272.419220,82.902779 271.434296,88.299332 
	C271.187531,89.651474 271.380280,90.802986 272.901428,91.606705 
	C282.484283,96.669937 292.115967,92.594978 294.638000,81.560104 
M225.769791,92.636719 
	C233.237839,89.708420 236.194778,84.536224 234.112122,78.044502 
	C232.062073,71.654427 226.538513,68.551689 220.088516,70.167038 
	C213.247070,71.880417 210.034439,76.992523 211.332092,84.100716 
	C212.427429,90.100708 217.093567,93.055618 225.769791,92.636719 
M385.159729,157.466766 
	C383.334503,158.413635 382.127472,159.601410 383.509827,161.772888 
	C385.114685,164.293839 386.482086,167.015732 388.387543,169.285187 
	C392.335327,173.987167 398.520172,174.582581 403.583984,171.074341 
	C408.473816,167.686661 409.574158,162.334030 406.514374,156.650787 
	C405.569366,154.895599 404.437195,153.235336 403.574188,151.443237 
	C402.180664,148.549255 400.385925,148.021301 397.641174,149.809570 
	C393.745239,152.347916 389.715027,154.680145 385.159729,157.466766 
M409.448914,202.962585 
	C402.978851,204.190125 402.959320,204.207245 404.606476,210.673843 
	C405.014465,212.275574 405.423584,213.886826 405.987244,215.437332 
	C408.106110,221.266159 412.798309,223.898392 418.924652,222.771454 
	C424.207275,221.799744 427.928955,216.994217 427.657867,211.157410 
	C427.481415,207.358154 426.513458,203.694824 424.844055,199.814072 
	C419.908691,200.820587 415.078491,201.805664 409.448914,202.962585 
M137.254456,128.857529 
	C139.933914,127.432610 142.721725,130.232086 145.661850,128.647675 
	C145.509232,127.986526 145.536377,126.977905 145.205017,126.841751 
	C141.626465,125.371353 141.021500,122.451317 140.423080,118.992935 
	C139.769714,115.216919 135.246429,113.171310 131.216003,114.341934 
	C127.047935,115.552528 124.362495,118.915077 121.366089,121.767975 
	C120.524086,122.569641 120.612259,123.627190 121.377907,124.464714 
	C125.422943,128.889481 129.481857,133.302078 133.585007,137.672852 
	C134.421143,138.563538 135.564636,139.100037 136.696625,138.171310 
	C137.958511,137.136047 137.217484,136.038864 136.463455,135.131607 
	C134.770203,133.094299 133.905380,131.145386 137.254456,128.857529 
M428.819977,238.500961 
	C422.680969,238.557831 416.445282,238.038177 410.094604,241.059692 
	C422.560211,245.249786 412.184998,249.813843 410.627747,253.736877 
	C413.576782,255.222900 415.581177,252.127731 418.287231,254.206345 
	C423.029938,257.849426 426.923065,257.504913 429.801514,254.302643 
	C432.781799,250.987106 432.681244,242.182861 428.819977,238.500961 
M115.377922,133.198715 
	C115.591309,129.893356 114.081657,130.089233 112.361397,131.922821 
	C110.318810,134.099960 108.681297,136.653503 106.678322,138.872513 
	C104.700966,141.063156 104.711967,142.797729 107.077011,144.680771 
	C110.980553,147.788742 114.757370,151.055405 118.622375,154.212616 
	C119.505219,154.933777 120.421982,155.743027 121.737740,155.498459 
	C124.085922,155.061996 130.178726,145.938034 129.915894,142.800583 
	C127.342598,143.801270 126.035416,145.929901 124.554512,147.833633 
	C123.235229,149.529617 121.928619,150.905594 119.605156,149.261093 
	C117.149796,147.523254 117.720207,145.813110 119.290733,143.818893 
	C120.523956,142.252945 122.503632,140.710281 120.655968,138.118210 
	C118.681374,138.538528 118.011627,140.146423 117.008919,141.388306 
	C115.646614,143.075546 114.394150,145.122772 111.779305,143.074234 
	C108.994766,140.892761 110.616592,139.093353 112.192696,137.241959 
	C113.162834,136.102371 114.089455,134.925751 115.377922,133.198715 
M406.486847,179.259689 
	C402.633240,179.563385 398.647247,178.371918 393.339661,180.602097 
	C397.854034,182.703964 401.093292,184.130890 403.125061,188.268814 
	C405.404785,192.911682 399.600616,196.008743 403.227173,201.623398 
	C408.527466,195.803436 413.209076,190.631195 417.933899,185.498779 
	C419.011139,184.328613 419.832581,183.241257 419.047211,181.527710 
	C418.314392,179.928787 417.077423,179.371658 415.457886,179.352158 
	C412.792145,179.320038 410.126343,179.296738 406.486847,179.259689 
M309.400146,77.231194 
	C307.049164,76.543129 304.458557,75.092712 303.140625,78.642197 
	C300.962372,84.508812 298.892212,90.415558 296.613098,96.760368 
	C302.133240,98.512283 306.826691,100.888466 313.171021,101.556168 
	C310.982697,97.340584 307.831451,97.483040 305.414917,96.452675 
	C303.223206,95.518181 301.440887,94.723305 302.598877,91.782448 
	C303.738922,88.887138 305.633728,89.453880 307.884216,90.141533 
	C309.810059,90.729988 311.871185,92.883858 314.061798,90.314575 
	C312.848145,87.876694 310.424561,87.906464 308.566071,87.033058 
	C306.522339,86.072586 305.174713,84.896538 306.247925,82.420601 
	C307.305176,79.981453 309.045502,80.917740 310.869537,81.286415 
	C313.155914,81.748543 315.476715,84.098083 318.243073,81.582687 
	C315.911407,78.944908 312.799744,78.623512 309.400146,77.231194 
M344.917358,117.996368 
	C344.235626,119.816711 345.035706,120.471718 346.787537,120.361458 
	C354.353943,119.885246 357.428101,122.472298 358.312805,130.069016 
	C358.437592,131.140686 358.825592,131.989410 360.743713,132.277176 
	C363.986694,125.591675 365.709045,118.224854 366.503662,110.802673 
	C366.832458,107.731773 363.673859,107.180672 360.948883,108.702484 
	C355.731537,111.616203 350.528473,114.555481 344.917358,117.996368 
M248.594803,70.778397 
	C250.644257,70.007385 253.376419,72.979645 255.262070,69.543503 
	C251.986633,66.690025 248.499466,66.960663 244.916977,68.039810 
	C241.867340,68.958435 240.201828,70.977203 240.111938,74.248428 
	C240.017334,77.691109 241.894928,79.382057 245.017624,80.167564 
	C246.951477,80.654030 248.859100,81.268539 250.739136,81.936401 
	C251.890289,82.345329 252.853851,83.165627 252.717331,84.507370 
	C252.587234,85.785973 251.556503,86.516464 250.413254,86.889626 
	C248.457504,87.527985 246.477036,87.343224 244.503647,86.848717 
	C243.114105,86.500519 241.600693,85.651108 240.582901,87.525703 
	C243.391998,91.175240 250.168671,91.974274 254.274506,89.159332 
	C256.338593,87.744225 257.606689,85.774376 257.426544,83.281181 
	C257.252899,80.877968 255.472916,79.454880 253.372040,78.638000 
	C251.678741,77.979584 249.864288,77.632904 248.103882,77.146858 
	C246.476898,76.697639 244.620651,76.269363 244.372498,74.323524 
	C244.073639,71.980156 245.920547,71.280197 248.594803,70.778397 
M113.918289,169.289230 
	C116.701500,165.665909 118.122673,161.837128 114.282822,158.172791 
	C110.144821,154.223923 107.057388,157.754486 103.908440,160.108154 
	C103.775902,160.207214 103.666389,160.336670 103.536163,160.439301 
	C101.915482,161.716522 100.365616,164.231155 98.076424,162.296402 
	C95.476189,160.098755 97.498024,157.823532 98.840195,155.721802 
	C99.634201,154.478470 101.618927,153.471848 99.882935,151.570847 
	C95.192192,153.508423 92.393913,158.485245 93.439903,162.950424 
	C94.323891,166.723999 98.014755,168.556961 101.514214,166.651505 
	C103.519699,165.559494 105.198647,163.860443 107.001671,162.406250 
	C108.491570,161.204590 110.060341,160.088623 111.862373,161.650620 
	C113.672089,163.219254 112.622620,164.941422 111.841148,166.623047 
	C110.827545,168.804184 107.971916,169.724228 107.552635,172.679779 
	C110.685043,173.637146 111.875183,171.290207 113.918289,169.289230 
M93.063866,234.572647 
	C92.392067,228.422775 90.462784,226.267883 84.613060,225.483749 
	C81.330429,225.043732 78.015648,224.834488 74.711594,224.567780 
	C73.351196,224.457962 71.824677,224.475311 71.639519,226.244110 
	C71.454597,228.010803 72.972702,228.365494 74.301033,228.540375 
	C77.749931,228.994461 81.217987,229.303436 84.666389,229.760818 
	C88.113953,230.218124 90.251595,232.144257 89.939140,235.735153 
	C89.624657,239.349426 87.059814,240.807129 83.676460,240.746552 
	C80.531174,240.690247 77.392670,240.306061 74.246803,240.210724 
	C72.696999,240.163757 70.729179,239.752350 70.545753,242.922318 
	C74.671852,244.619965 79.152641,244.026962 83.485245,244.038818 
	C90.433899,244.057846 92.132736,242.380951 93.063866,234.572647 
M188.016464,83.209579 
	C189.492126,83.307884 191.495834,83.751297 191.359268,81.516411 
	C191.228668,79.379570 189.102478,79.410088 187.447205,79.389191 
	C182.384354,79.325264 177.577896,83.118889 176.092697,88.274040 
	C174.725571,93.019257 177.240692,98.957695 181.703400,101.521500 
	C185.885147,103.923897 192.079453,103.078377 195.544250,99.486580 
	C196.596985,98.395248 198.548019,97.104958 196.789108,95.367714 
	C195.179245,93.777679 194.159592,95.700531 193.155853,96.663849 
	C190.780258,98.943787 188.131500,99.898880 184.968994,98.507111 
	C181.960678,97.183174 180.305161,94.774956 179.926239,91.577263 
	C179.427109,87.365059 181.888367,84.655586 188.016464,83.209579 
M156.988098,96.089294 
	C153.969864,94.838943 153.534210,95.294899 153.878098,98.831894 
	C154.345078,103.635338 156.958374,108.162933 156.017227,114.034760 
	C152.721634,111.818268 149.960587,110.070221 147.316391,108.160393 
	C141.679520,104.089035 141.704361,104.054642 138.755127,107.338341 
	C144.018112,110.863319 149.207138,114.386482 154.453583,117.821960 
	C155.920364,118.782448 157.418716,120.200966 159.399643,118.740417 
	C161.173157,117.432777 161.107925,115.545425 160.762207,113.753716 
	C159.664307,108.064041 158.422607,102.402115 156.988098,96.089294 
M341.878448,92.325104 
	C333.345612,90.250092 326.263428,97.955452 328.384430,106.949417 
	C329.791901,112.917618 336.853302,116.747498 341.322784,113.940765 
	C340.662048,111.640282 338.349121,112.172241 336.835907,111.426643 
	C331.695190,108.893669 330.251038,103.451569 333.680603,98.963593 
	C337.154999,94.416924 342.392212,94.625412 346.730164,99.548004 
	C347.575653,100.507439 348.087982,102.261520 349.723358,100.965775 
	C351.144012,99.840141 350.055450,98.433502 349.373566,97.408463 
	C347.758270,94.980362 345.376129,93.463547 341.878448,92.325104 
M84.743431,183.652496 
	C84.521004,181.499893 83.345055,180.457352 82.222351,182.774323 
	C80.028763,187.301331 78.312958,192.083313 77.443077,197.080627 
	C78.380737,197.314056 78.697510,197.465988 79.004974,197.449036 
	C79.316177,197.431885 79.834488,197.314880 79.892960,197.126846 
	C82.057922,190.163666 86.531982,193.516998 90.501144,194.749420 
	C92.877777,195.487350 95.234138,196.292862 97.586273,197.106522 
	C98.897263,197.560059 100.236992,198.052811 100.990944,196.368286 
	C101.827560,194.499100 100.215302,194.034195 99.054367,193.577286 
	C95.193810,192.057938 91.320992,190.552429 87.383186,189.252762 
	C84.798729,188.399750 83.973412,186.867432 84.743431,183.652496 
M94.887878,206.771362 
	C92.369186,215.293854 92.373955,215.271072 83.686424,213.453171 
	C81.252296,212.943832 78.789963,212.541626 76.322983,212.229172 
	C75.164757,212.082474 73.923058,212.198288 73.719116,213.806885 
	C76.011215,215.903137 90.650558,220.165878 93.257019,219.387131 
	C93.967743,219.174774 94.921715,218.562302 95.089821,217.948715 
	C96.052116,214.436356 96.972908,210.894760 97.559761,207.306168 
	C97.796005,205.861496 96.706215,205.221222 94.887878,206.771362 
M373.485382,146.269165 
	C376.235962,143.518112 373.104156,142.154190 371.843903,140.912399 
	C368.770691,137.884140 369.256622,135.714767 372.436218,133.221802 
	C375.169739,131.078583 377.609772,128.555405 380.128937,126.147270 
	C381.100922,125.218140 382.075684,124.126579 380.894226,122.718369 
	C379.598602,121.174065 378.562866,122.316193 377.549957,123.176239 
	C375.904083,124.573708 374.157196,125.874535 372.650299,127.409843 
	C362.671082,137.577316 360.596771,134.154984 373.485382,146.269165 
M419.931183,263.690277 
	C418.450104,263.543427 416.971741,263.320709 415.487274,263.267059 
	C413.115265,263.181274 409.890350,261.914337 409.014496,265.086639 
	C408.054199,268.564697 406.334442,272.381531 408.390625,276.116150 
	C410.013916,275.807983 410.480652,274.983582 410.479248,274.218536 
	C410.467377,267.853516 413.980865,266.616669 419.444397,267.700531 
	C421.531860,268.114655 423.737762,268.042542 425.886047,268.001495 
	C427.403839,267.972504 429.302002,268.515747 430.120422,265.923157 
	C427.403809,263.528168 423.843903,264.687347 419.931183,263.690277 
M206.857285,91.347046 
	C205.557602,86.876060 204.270645,82.401314 202.951233,77.936150 
	C202.498901,76.405319 201.722076,74.942856 199.845810,75.453278 
	C197.761719,76.020226 198.387268,77.732407 198.793396,79.167534 
	C200.106415,83.807526 201.410645,88.451019 202.818604,93.062531 
	C203.276672,94.562874 203.444672,96.817772 205.722916,96.427658 
	C208.477310,95.956009 207.603455,93.849838 206.857285,91.347046 
M174.423477,104.892876 
	C171.974426,100.382576 169.541931,95.863152 167.065292,91.368057 
	C166.400894,90.162148 165.606018,89.079491 163.927078,89.953461 
	C162.183426,90.861107 162.796692,92.160004 163.407791,93.333130 
	C165.855423,98.031845 168.335876,102.714447 170.885757,107.358215 
	C171.537018,108.544243 171.890839,110.568542 173.983627,109.699219 
	C176.176956,108.788132 175.474075,107.099380 174.423477,104.892876 
M91.953430,172.716034 
	C90.225540,172.223816 88.117088,169.946030 86.912056,172.877823 
	C85.899979,175.340195 88.678139,175.679337 90.140533,176.401962 
	C94.455345,178.534042 98.854950,180.498215 103.257462,182.446548 
	C104.403938,182.953934 105.817848,183.792389 106.715645,182.058029 
	C107.793236,179.976395 106.052887,179.526352 104.721703,178.883865 
	C100.684555,176.935379 96.646828,174.988083 91.953430,172.716034 
M388.844879,146.356369 
	C390.524292,145.023300 392.228912,143.720413 393.873016,142.345184 
	C394.779388,141.587067 395.647339,140.668243 394.700592,139.410797 
	C393.855042,138.287720 392.728485,138.274796 391.660400,139.096512 
	C387.088776,142.613617 382.527588,146.144592 377.993317,149.709579 
	C377.188782,150.342133 376.610077,151.183060 377.330566,152.277664 
	C378.176697,153.563171 379.277802,153.391968 380.312195,152.647903 
	C382.987732,150.723328 385.611603,148.726913 388.844879,146.356369 
z"/>
<path fill="#000000" opacity="1.000000" stroke="none" 
	d="
M83.928528,140.891113 
	C66.856850,167.412109 56.914497,196.038879 53.167824,226.994537 
	C48.476788,265.752655 54.532845,302.758789 71.419815,337.761505 
	C89.098038,374.404266 115.705498,403.104340 150.879608,423.857819 
	C171.767548,436.182220 194.109329,444.473541 217.788086,449.203094 
	C224.939102,450.631439 232.306366,450.976746 239.574295,451.820465 
	C241.332321,452.024536 243.278015,451.507477 244.874496,453.290100 
	C244.021286,455.538025 241.822571,455.508270 240.049500,455.890503 
	C228.664795,458.344940 217.377335,456.533203 206.425476,453.831665 
	C136.357910,436.547913 86.462517,394.501282 59.676273,327.801331 
	C33.075603,261.563416 40.156277,196.877136 78.668266,136.773376 
	C105.617516,94.715050 144.186996,66.834557 192.060501,52.214279 
	C199.362335,49.984352 206.962860,48.718838 214.447525,47.111015 
	C216.317612,46.709293 218.333527,46.395069 220.665863,48.368317 
	C215.758026,51.831535 210.300674,53.077400 205.337967,54.491417 
	C178.502625,62.137589 153.278702,72.970016 130.889572,89.856903 
	C112.232956,103.928566 96.402985,120.626129 83.928528,140.891113 
z"/>
<path fill="#000000" opacity="1.000000" stroke="none" 
	d="
M391.736084,392.736053 
	C424.756439,358.856659 444.235199,318.782471 448.787292,272.025360 
	C454.943909,208.787399 435.827789,153.943817 391.302856,108.532860 
	C362.493866,79.150566 327.162689,61.349113 286.880890,53.333187 
	C281.554901,52.273335 277.127258,49.507946 271.473999,46.721966 
	C277.725006,45.282970 282.908142,45.887661 288.041656,46.909893 
	C352.606171,59.766544 400.964417,95.053520 432.669403,152.633347 
	C447.060455,178.769119 454.599823,207.032532 456.503052,236.988983 
	C459.180695,279.135193 450.618927,318.582886 429.213654,354.859589 
	C402.941467,399.384644 365.518158,430.867004 316.336395,447.756836 
	C311.004852,449.587769 305.424408,450.721405 299.920105,452.010498 
	C297.139984,452.661560 294.358917,452.475037 291.694946,450.670715 
	C292.643616,447.769836 295.152283,447.468201 297.239502,446.895935 
	C321.201477,440.326263 343.598877,430.360779 364.048157,416.184357 
	C373.928650,409.334747 382.972473,401.466949 391.736084,392.736053 
z"/>
<path fill="#000000" opacity="1.000000" stroke="none" 
	d="
M271.386597,451.037842 
	C275.740540,450.806274 279.605072,450.957703 284.234467,452.720428 
	C276.307953,455.694061 269.177979,454.052582 261.990631,453.231171 
	C264.976013,452.516876 267.961395,451.802551 271.386597,451.037842 
z"/>
<path fill="#000000" opacity="1.000000" stroke="none" 
	d="
M235.975464,247.022339 
	C236.716064,249.555359 238.708527,251.190643 240.440155,252.943634 
	C243.200699,255.738266 243.100784,257.845123 239.768219,260.172333 
	C234.246704,264.028168 234.126251,264.862518 237.871521,270.440643 
	C242.977142,278.044861 248.235153,285.546753 253.425766,293.093964 
	C254.528366,294.697144 255.944092,296.171722 255.832535,299.077637 
	C248.757095,299.077637 241.848373,299.257782 234.957748,298.983246 
	C232.431015,298.882568 231.372391,296.196472 230.073425,294.313110 
	C224.683029,286.497650 219.399292,278.608643 214.008286,270.793610 
	C211.595993,267.296661 204.202606,265.719635 199.009598,267.524689 
	C194.712036,269.018524 194.887390,272.703369 194.953110,276.242889 
	C195.067474,282.402069 193.951630,288.535828 194.695572,294.713501 
	C195.062012,297.756500 193.756180,299.408875 190.426620,299.283875 
	C186.766022,299.146454 183.092438,299.155823 179.431320,299.288513 
	C176.012115,299.412445 174.647400,297.949432 174.710403,294.533234 
	C174.836349,287.703857 174.722076,280.870209 174.721466,274.038330 
	C174.719574,253.042725 174.785156,232.046799 174.670898,211.051834 
	C174.650345,207.274307 175.435730,204.935471 179.796005,205.059097 
	C194.444504,205.474426 209.115540,204.355301 223.752777,205.748260 
	C237.847504,207.089600 248.592514,216.444962 250.639557,229.236069 
	C250.820007,230.363632 251.332977,231.519806 250.135300,232.500610 
	C247.916626,233.373581 246.457565,230.428955 244.911301,230.834244 
	C249.382904,235.730530 253.944366,240.865982 258.672180,245.843414 
	C261.079529,248.377853 262.969513,246.890289 264.875916,244.762894 
	C274.765717,233.726746 284.421051,222.469894 295.651123,212.706024 
	C306.759094,203.048325 318.440399,194.265411 331.832062,187.974472 
	C333.097229,187.380112 334.292114,186.084625 336.533936,187.421112 
	C310.638519,212.207214 287.973846,239.421951 269.191986,269.835449 
	C271.823273,269.033997 272.521698,266.254211 274.391357,264.714691 
	C276.407959,263.054199 276.899658,260.008514 279.725525,258.681396 
	C282.272400,262.554413 281.059845,266.640198 281.135406,270.467987 
	C281.330353,280.337128 281.853546,280.925140 291.700287,280.882660 
	C301.363831,280.840942 311.028229,280.988464 320.691589,280.933380 
	C325.551025,280.905701 327.423798,282.952728 327.229034,287.947083 
	C326.713684,301.162262 328.523163,299.157196 315.585266,299.335846 
	C310.089264,299.411774 304.592133,299.408600 299.096039,299.480011 
	C298.626007,299.486084 298.159821,299.783844 297.662994,299.956085 
	C298.091492,307.003143 292.259125,310.018250 288.243774,313.883728 
	C278.336182,323.421509 266.722992,330.614563 254.442322,336.755219 
	C252.188309,337.882294 250.226273,338.147064 247.849442,336.979065 
	C229.973312,328.194763 214.246353,316.712158 201.674561,301.085693 
	C198.930008,297.674316 197.384979,294.195801 197.585770,289.716248 
	C197.864441,283.499115 197.655823,277.260162 197.655823,270.973694 
	C201.035599,271.005707 201.300217,273.178772 202.051575,274.669434 
	C211.997253,294.401093 227.453888,308.627258 246.421173,319.413757 
	C249.492813,321.160583 252.256226,321.174316 255.335709,319.389404 
	C261.837158,315.621063 268.254303,311.696411 273.831818,306.670563 
	C277.631195,303.246948 281.547913,301.030640 286.798676,301.698517 
	C287.878418,301.835846 289.139008,301.909271 290.394379,300.550385 
	C283.523071,299.134094 276.854980,299.211853 270.187683,299.244354 
	C261.631256,299.286102 261.621277,299.274323 261.610901,290.954254 
	C261.605957,286.978851 261.180542,282.942596 263.427246,279.288361 
	C258.372681,275.390350 256.012756,269.724091 252.317886,265.081207 
	C247.376907,258.872467 243.325531,251.879410 236.255402,246.734741 
	C232.422424,242.688751 232.900269,239.891144 237.319504,237.398636 
	C238.663620,236.640533 240.539429,235.807983 241.208923,233.278488 
	C237.082275,233.840454 235.545364,239.320709 231.161057,237.925583 
	C229.266937,228.576065 225.685623,223.974869 218.949295,223.483063 
	C212.333633,223.000046 205.658936,223.325928 199.010147,223.296494 
	C196.330841,223.284622 195.038071,224.666748 195.037003,227.296783 
	C195.034637,233.114929 195.025726,238.933258 195.072357,244.751099 
	C195.089706,246.917450 195.846878,249.067917 198.200180,249.203842 
	C206.621307,249.690277 215.607132,251.664566 223.161789,247.385773 
	C228.077271,244.601776 231.594681,244.088837 235.975464,247.022339 
z"/>
<path fill="#000000" opacity="1.000000" stroke="none" 
	d="
M244.201904,168.184525 
	C248.399368,164.026215 251.923355,164.229721 256.596741,167.539307 
	C273.793243,179.717529 293.529449,185.651245 313.969269,189.595520 
	C315.367157,189.865250 317.059204,189.510986 317.954773,191.288101 
	C316.817871,193.782135 314.643127,193.710770 312.492371,193.319687 
	C308.234528,192.545441 304.001251,191.635300 299.761139,190.765289 
	C297.597260,190.321304 295.183014,189.638580 294.408112,192.589218 
	C293.761902,195.049927 295.667603,196.085464 297.658661,196.861237 
	C299.003021,197.385010 300.544434,197.713562 301.163788,199.295212 
	C299.763916,202.102081 297.646179,200.717957 295.890411,200.342194 
	C281.931335,197.354828 268.681152,192.476562 256.640472,184.731125 
	C252.843643,182.288727 249.797577,181.923248 245.750916,184.477280 
	C232.808884,192.645660 218.512802,197.632095 203.698685,201.222702 
	C195.300827,203.258133 186.769806,202.019073 178.301514,202.312363 
	C174.871948,202.431152 174.681152,200.018005 174.802383,197.552872 
	C174.947861,194.594055 173.728043,191.055481 178.785980,190.537674 
	C192.254089,189.158890 205.344498,186.045227 218.069626,181.368530 
	C227.184006,178.018860 235.798492,173.720276 244.201904,168.184525 
z"/>
<path fill="#000000" opacity="1.000000" stroke="none" 
	d="
M233.617569,375.103882 
	C233.178482,372.741119 232.715912,370.791321 232.462158,368.814728 
	C231.371048,360.315033 232.449036,359.873993 239.972244,356.506683 
	C247.585632,353.098969 254.080063,352.612274 261.850555,356.359100 
	C269.140564,359.874298 269.567688,358.977478 269.332001,367.124451 
	C269.014587,378.094360 264.387085,386.591766 255.028290,392.502350 
	C252.153397,394.317993 249.530258,394.494751 246.710007,392.531830 
	C240.543533,388.239746 235.433212,383.166718 233.617569,375.103882 
z"/>
<path fill="#000000" opacity="1.000000" stroke="none" 
	d="
M146.462250,266.098633 
	C145.078400,267.188721 143.853302,267.821014 142.482193,267.234467 
	C139.458389,265.940887 137.625824,266.935059 135.909836,269.676849 
	C133.763672,273.105896 129.809311,272.981354 127.517776,269.461456 
	C125.987251,267.110443 124.349609,266.582245 121.672234,267.103729 
	C117.610909,267.894806 114.842651,265.268951 115.497948,261.230713 
	C115.899757,258.754608 115.373772,257.283447 113.384995,255.704208 
	C109.788849,252.848587 109.893127,249.509674 113.626289,246.820435 
	C115.603302,245.396271 115.916748,243.846802 115.623688,241.690063 
	C114.940239,236.660370 117.105156,234.328552 121.828911,235.297104 
	C124.384720,235.821167 125.848839,235.001785 127.335907,233.086807 
	C130.199768,229.398956 133.224167,229.431168 136.023880,233.166763 
	C137.509216,235.148666 138.938934,235.853409 141.510025,235.082489 
	C145.917435,233.760986 149.149704,236.863434 147.807144,241.196762 
	C146.844803,244.302826 148.282318,245.773651 150.300140,247.502548 
	C154.163177,250.812439 154.126465,252.314545 149.962402,255.013397 
	C147.605331,256.541077 146.786072,258.324951 147.782822,260.866730 
	C148.546600,262.814362 148.239044,264.435486 146.462250,266.098633 
M122.759247,250.275497 
	C123.533722,248.380981 125.046486,248.193054 126.818398,248.440948 
	C128.730133,248.708420 129.786774,247.812561 130.342407,245.426422 
	C127.762840,246.183533 125.563332,247.140503 123.355927,245.189911 
	C122.959999,247.425262 120.727440,248.684647 122.759247,250.275497 
M137.785614,246.445023 
	C136.782349,247.582687 134.899551,245.815720 133.854614,247.383392 
	C135.441422,249.281464 137.300247,248.903961 139.059326,248.653870 
	C140.189911,248.493118 140.866180,247.657837 140.410782,246.513519 
	C140.016556,245.522873 139.120483,245.748825 137.785614,246.445023 
z"/>
<path fill="#000000" opacity="1.000000" stroke="none" 
	d="
M131.888763,329.052734 
	C120.037598,310.192535 112.568398,290.197418 110.380829,268.524353 
	C112.259415,267.267517 112.998344,268.528351 113.843842,269.149353 
	C115.448776,270.328125 116.784279,272.276245 118.548416,272.767609 
	C127.176559,275.170685 129.569794,281.848053 131.637024,289.523041 
	C134.767960,301.147217 140.093811,311.911682 147.018921,321.805054 
	C148.829773,324.392059 149.208664,326.707306 147.595734,329.597870 
	C145.017944,334.217682 145.400375,339.504761 145.093002,345.865845 
	C139.155807,340.686035 136.131943,334.591248 131.888763,329.052734 
z"/>
<path fill="#000000" opacity="1.000000" stroke="none" 
	d="
M376.837891,275.780762 
	C382.249756,274.727234 385.583923,270.580658 389.971375,268.202850 
	C394.607788,282.019318 370.520538,337.348755 357.349274,342.763153 
	C357.307404,336.747925 355.699493,331.277130 353.604340,325.897247 
	C353.000427,324.346436 354.520508,322.767120 355.400604,321.387787 
	C363.539673,308.631927 369.349945,294.897675 372.777008,280.165680 
	C373.278107,278.011505 374.343872,276.543640 376.837891,275.780762 
z"/>
<path fill="#000000" opacity="1.000000" stroke="none" 
	d="
M301.881348,270.874756 
	C307.928711,256.471680 311.936951,242.016632 312.028046,226.598679 
	C312.086334,216.734146 316.528503,209.652679 325.500488,203.900085 
	C327.205994,204.678467 327.035828,206.313309 327.096893,207.737610 
	C328.002686,228.859695 325.907867,249.566330 318.532043,269.549347 
	C314.879974,279.443665 310.117706,281.443329 299.782684,277.221985 
	C299.400665,274.903107 301.031799,273.205933 301.881348,270.874756 
z"/>
<path fill="#000000" opacity="1.000000" stroke="none" 
	d="
M155.878387,152.167999 
	C158.036530,151.806107 158.832123,150.483200 159.786911,149.019699 
	C161.722412,146.052902 165.938065,146.220001 167.279160,149.465408 
	C168.680771,152.857269 171.072922,153.793381 174.280869,153.843796 
	C176.696518,153.881760 178.287323,155.053543 177.869415,157.500717 
	C177.345596,160.568039 178.535324,161.885513 181.271103,163.055389 
	C185.094345,164.690323 185.551697,169.569260 182.083633,171.737701 
	C179.670502,173.246536 179.039352,174.626373 179.710083,177.389969 
	C180.628555,181.174301 177.961838,183.911102 174.070847,183.092300 
	C171.102676,182.467697 169.424271,183.413071 167.760498,185.651291 
	C165.092743,189.240128 162.154221,189.198486 159.537704,185.619431 
	C157.898682,183.377457 156.166977,182.457153 153.204803,183.158447 
	C149.490036,184.037933 146.719711,181.023727 147.858337,177.316132 
	C148.680267,174.639771 147.899017,173.423767 145.763596,172.068787 
	C141.807755,169.558685 141.735291,165.706177 145.550735,163.070724 
	C147.187927,161.939896 148.347992,160.880508 148.080688,158.702026 
	C147.250229,151.933670 148.955673,150.471786 155.878387,152.167999 
M158.833664,169.339355 
	C161.461624,167.333237 163.031952,164.645813 163.469543,161.420044 
	C163.921936,158.085144 162.631470,156.677536 159.170029,158.038116 
	C154.089142,160.035309 152.202789,164.485443 154.053223,170.876236 
	C155.428589,170.471008 156.820908,170.060776 158.833664,169.339355 
z"/>
<path fill="#000000" opacity="1.000000" stroke="none" 
	d="
M323.974487,127.947495 
	C329.885620,131.624084 335.500916,135.090851 340.370819,140.483719 
	C334.001160,140.715332 328.522919,143.190872 322.923981,145.332352 
	C321.415680,145.909241 320.129944,144.554520 318.878601,143.767136 
	C307.690247,136.727020 295.837921,131.178253 282.924133,128.160385 
	C279.123566,127.272202 276.961731,125.329910 275.718109,121.560585 
	C274.502686,117.876884 272.423584,114.478165 270.195770,109.860153 
	C290.275574,111.297890 307.313568,118.459221 323.974487,127.947495 
z"/>
<path fill="#000000" opacity="1.000000" stroke="none" 
	d="
M246.021118,149.797241 
	C245.040695,146.404221 243.931412,144.412781 239.933517,145.562439 
	C236.488510,146.553070 233.430222,143.107971 234.508011,139.611404 
	C235.369858,136.815506 234.710312,135.437561 232.298813,133.936111 
	C228.917389,131.830780 228.940292,128.033554 232.333725,125.941704 
	C234.840042,124.396713 235.855530,123.031860 234.788696,119.944542 
	C233.600159,116.504990 236.945557,113.239990 240.396072,114.463715 
	C243.651199,115.618126 245.250397,114.541359 246.857376,111.860031 
	C248.791397,108.632996 252.937469,108.590698 254.809280,111.901970 
	C256.354248,114.635086 258.096130,115.114120 260.933624,114.477539 
	C265.138062,113.534271 267.775085,116.316444 266.738647,120.624825 
	C266.165039,123.009209 266.949280,124.296890 268.795105,125.618057 
	C272.696045,128.410187 272.636383,131.729660 268.667023,134.462265 
	C266.758240,135.776321 266.171539,137.100266 266.808594,139.479584 
	C267.950439,143.744354 265.526154,146.153488 260.916229,145.472198 
	C258.529114,145.119446 257.310120,145.846573 256.274200,148.038177 
	C253.450760,154.011719 251.213257,154.395813 246.021118,149.797241 
M256.822021,124.635902 
	C251.894760,121.183319 247.778702,121.265396 244.915665,124.873375 
	C242.072861,128.455841 243.019867,134.088379 246.992203,137.348495 
	C248.046951,138.214127 249.193222,139.325455 250.368668,137.834091 
	C251.396957,136.529449 250.825317,135.670486 249.284058,134.782364 
	C248.045013,134.068375 246.266785,133.175415 246.413956,130.772141 
	C249.121460,130.669617 251.773438,131.545563 254.264633,130.755630 
	C255.494415,133.141449 252.136871,134.542953 253.671783,136.620178 
	C258.654236,133.583496 259.582703,130.669373 256.822021,124.635902 
z"/>
<path fill="#000000" opacity="1.000000" stroke="none" 
	d="
M366.325806,168.025909 
	C380.685516,187.638748 388.421661,209.394226 390.565399,233.538818 
	C385.554169,229.754868 380.440704,226.878082 374.790009,224.949066 
	C373.454681,224.493179 373.111664,222.980164 372.815430,221.659622 
	C370.215424,210.070740 365.953247,199.102463 360.243927,188.713623 
	C358.711487,185.925186 358.654663,183.595673 360.358307,180.855072 
	C362.197784,177.895966 363.446198,174.622559 363.831879,171.063126 
	C363.976837,169.725525 363.737122,167.843552 366.325806,168.025909 
z"/>
<path fill="#000000" opacity="1.000000" stroke="none" 
	d="
M322.800842,178.621750 
	C322.187408,173.902786 324.666840,168.702362 318.869019,165.996475 
	C317.939423,165.562637 318.320587,164.093842 319.174194,163.404175 
	C322.162018,160.990112 324.174164,158.194107 323.797455,154.072968 
	C323.679779,152.785507 324.820496,151.595398 326.013611,151.931427 
	C329.433289,152.894577 332.009949,151.703445 334.634674,149.670502 
	C336.631897,148.123596 337.974731,150.129974 339.301361,151.252090 
	C341.799316,153.364883 344.020172,154.944107 347.608185,152.757141 
	C350.459747,151.019058 353.494446,152.513626 355.667145,154.861069 
	C357.852905,157.222610 359.258606,160.627213 356.929016,162.986572 
	C352.533936,167.437820 353.399292,172.653839 353.299652,177.866943 
	C353.178741,184.192200 352.722290,183.374359 346.649811,182.205704 
	C340.914307,181.101883 338.115387,179.678299 338.661346,173.625168 
	C338.794891,172.144608 337.282990,171.458603 335.779724,171.558502 
	C334.480804,171.644791 333.588562,172.353088 333.371704,173.669693 
	C333.210541,174.648163 333.180939,175.650787 333.130920,176.644562 
	C333.023041,178.787628 333.357574,181.378052 330.341644,181.635864 
	C327.584900,181.871521 324.208374,183.173676 322.800842,178.621750 
z"/>
<path fill="#000000" opacity="1.000000" stroke="none" 
	d="
M140.510742,187.645905 
	C136.260117,196.634644 133.703232,205.901535 130.601288,214.965332 
	C128.634995,220.710724 125.203743,225.062271 119.825974,228.042465 
	C117.017799,229.598694 114.565262,231.796661 111.824532,233.797928 
	C108.259827,221.684647 125.434654,175.696747 135.466812,169.955017 
	C135.753601,170.099243 136.303116,170.320175 136.285126,170.385895 
	C134.520187,176.840118 139.351196,181.623795 140.510742,187.645905 
z"/>
<path fill="#000000" opacity="1.000000" stroke="none" 
	d="
M375.793518,265.186798 
	C376.696045,267.238770 377.718170,269.203827 374.486084,269.256256 
	C370.040466,269.328369 365.556671,269.817291 361.442902,268.987427 
	C359.694244,267.179169 362.412292,266.108154 361.572235,264.562195 
	C359.468506,262.825897 356.867371,263.340759 354.441925,263.391113 
	C350.870972,263.465210 349.109497,261.780518 349.073486,258.367035 
	C349.010345,252.382385 349.072693,246.395538 349.152313,240.410553 
	C349.197113,237.044296 350.887451,235.093643 354.363922,235.086166 
	C364.008179,235.065445 373.652740,235.071304 383.296783,235.130585 
	C386.238892,235.148666 388.144867,236.699081 388.089996,239.703949 
	C387.969421,246.306137 389.132812,252.958054 387.400024,259.512512 
	C387.205475,260.248383 387.206360,261.182587 387.490021,261.870941 
	C388.363922,263.991699 388.306671,265.905304 386.169434,267.053345 
	C384.070648,268.180695 382.431885,266.859619 380.799438,265.572418 
	C379.336365,264.418793 377.949341,261.473419 375.793518,265.186798 
M353.223053,247.498276 
	C353.269348,256.857452 358.545349,259.878845 367.371948,255.600830 
	C361.725525,252.049179 361.237854,251.179947 362.322510,246.460770 
	C364.223572,245.775848 365.720215,248.942932 367.754578,247.163925 
	C367.038574,239.684875 366.111115,239.185181 358.309814,239.138840 
	C352.356628,239.103485 353.346222,243.046341 353.223053,247.498276 
M384.389404,247.469742 
	C384.116455,238.762924 380.462311,236.698624 371.888947,240.696884 
	C375.714233,245.816101 375.414093,253.861450 383.263184,256.180817 
	C384.829865,253.527893 384.572174,250.871201 384.389404,247.469742 
z"/>
<path fill="#000000" opacity="1.000000" stroke="none" 
	d="
M336.648712,309.811279 
	C344.770660,298.401672 349.764557,286.002502 352.759094,272.068390 
	C357.858734,274.304840 362.391113,276.286560 367.347809,276.875000 
	C369.036499,277.075470 369.146973,278.565521 368.820190,280.013580 
	C365.483185,294.802368 359.567902,308.442291 350.647430,320.736084 
	C350.380005,321.104645 349.838074,321.274048 349.216888,321.667572 
	C344.744049,318.983917 340.480011,315.740936 335.533417,314.759155 
	C334.580444,312.551300 335.783661,311.414185 336.648712,309.811279 
z"/>
<path fill="#000000" opacity="1.000000" stroke="none" 
	d="
M149.974869,276.310181 
	C153.410507,289.848633 159.179367,301.910309 167.441528,313.502228 
	C162.387436,315.939056 157.691132,317.916321 153.617538,320.988464 
	C151.933228,322.258698 150.921036,320.584564 150.064743,319.377380 
	C141.773331,307.687927 136.715256,294.564484 133.032181,280.836700 
	C132.387390,278.433411 133.196381,277.047394 135.778610,276.635071 
	C139.079514,276.107971 142.270447,275.095978 145.153137,273.385223 
	C148.304932,271.514740 149.271851,273.290039 149.974869,276.310181 
z"/>
<path fill="#000000" opacity="1.000000" stroke="none" 
	d="
M345.309021,345.162659 
	C342.955475,350.722473 338.087219,348.598206 333.997711,349.470612 
	C337.562439,350.534576 341.590271,348.389984 344.141113,351.389374 
	C344.886841,353.692657 342.175995,354.301910 342.747620,356.297821 
	C343.409149,358.607758 342.376007,360.417725 339.898468,360.526611 
	C336.835571,360.661255 336.672791,358.325134 336.727570,356.005493 
	C336.738251,355.552734 336.494965,355.093933 336.367706,354.633911 
	C334.149811,353.977875 332.018555,354.156891 330.014832,354.400726 
	C328.992218,354.976166 329.094025,355.804962 329.149719,356.643341 
	C329.291199,358.774109 328.485443,360.360809 326.198273,360.411499 
	C323.908691,360.462311 323.803497,358.514343 322.944611,356.840210 
	C319.311310,349.758423 320.745117,341.605835 317.656891,334.339905 
	C316.301300,331.150482 313.193085,330.845093 311.294098,328.078400 
	C314.774048,326.236755 317.757904,325.585846 319.966034,329.213776 
	C322.340363,333.114777 324.663544,332.765411 327.381348,329.727783 
	C329.155487,327.744843 331.030670,325.852325 332.806580,323.870850 
	C335.310211,321.077393 338.547333,321.357300 341.609314,322.101105 
	C344.612244,322.830566 343.887543,325.719574 344.146393,327.946014 
	C344.260681,328.928833 344.097656,330.447845 344.649323,330.799316 
	C351.496857,335.162140 346.194916,340.084991 345.309021,345.162659 
z"/>
<path fill="#000000" opacity="1.000000" stroke="none" 
	d="
M213.383591,152.451355 
	C205.047165,155.489517 197.753342,159.768417 190.049316,164.619095 
	C188.050278,159.278564 186.270050,154.485092 183.383194,150.210098 
	C182.273514,148.566833 184.071228,147.549316 185.334946,146.764359 
	C196.016190,140.129593 207.363190,135.037140 219.558777,131.848953 
	C222.782837,131.006119 224.717361,131.604401 225.054031,135.247284 
	C225.440842,139.432648 227.573090,143.035461 229.807907,146.967682 
	C224.053833,148.884537 218.899536,150.601578 213.383591,152.451355 
z"/>
<path fill="#000000" opacity="1.000000" stroke="none" 
	d="
M294.195251,154.798615 
	C287.020416,151.612778 279.910950,149.355942 271.960938,147.488510 
	C274.182892,142.128067 276.775116,137.678207 277.591949,132.588303 
	C277.863831,130.894135 279.778137,131.369568 281.021332,131.670517 
	C293.926270,134.794556 305.960632,139.945312 317.008026,147.339310 
	C318.188049,148.129074 319.174408,149.298370 318.071472,150.669662 
	C314.988586,154.502686 313.797089,159.231049 311.862671,164.137787 
	C305.852264,160.949524 300.197723,157.950027 294.195251,154.798615 
z"/>
<path fill="#000000" opacity="1.000000" stroke="none" 
	d="
M172.350800,366.110718 
	C175.422394,366.066345 177.040619,367.970154 178.209488,369.896973 
	C181.028595,374.544189 185.679581,375.123474 190.275650,375.761078 
	C193.687286,376.234406 195.115112,374.681519 194.589371,371.040771 
	C193.929031,366.467712 195.150421,365.473846 199.479141,367.332214 
	C206.697479,370.431213 214.217133,372.542358 221.698380,374.807037 
	C222.992752,375.198883 224.525314,375.515350 224.911743,376.897949 
	C226.481979,382.515778 229.309998,387.494446 233.822830,392.760132 
	C227.392014,393.365875 222.631454,391.866608 217.885117,390.820923 
	C201.744904,387.265015 187.396683,379.528046 173.329407,371.228912 
	C169.468811,368.951263 169.386368,368.079437 172.350800,366.110718 
z"/>
<path fill="#000000" opacity="1.000000" stroke="none" 
	d="
M153.979767,344.742065 
	C154.009064,340.624695 153.983429,336.964569 154.078201,333.307556 
	C154.155594,330.322052 155.658630,328.717896 158.779419,328.773010 
	C161.439789,328.819977 164.102676,328.718933 166.763275,328.760162 
	C170.448898,328.817230 174.021576,329.088837 176.045685,324.794098 
	C176.924652,322.929169 179.075043,322.428650 180.969574,323.396820 
	C181.976883,325.636597 179.382874,326.539429 179.837585,328.298401 
	C181.079605,330.903656 183.513306,328.722260 186.163788,330.129547 
	C186.163788,334.431335 186.120407,339.260742 186.181229,344.088806 
	C186.214066,346.694519 186.080215,349.152039 188.231247,351.470428 
	C190.451294,353.863159 188.264832,355.816223 185.939529,355.853851 
	C175.472992,356.023193 164.996857,355.953827 154.532867,355.660492 
	C152.158539,355.593933 150.146881,353.908783 152.464706,351.286255 
	C154.138306,349.392670 153.837326,347.312164 153.979767,344.742065 
M168.474915,345.126587 
	C166.717239,346.143799 165.222839,345.776825 164.231750,344.065552 
	C163.256866,342.382233 163.973419,340.934235 165.127380,339.545532 
	C166.749298,337.593689 169.725021,336.684570 169.925049,333.391235 
	C166.953934,331.636475 163.776840,332.449066 160.707260,332.537323 
	C159.185791,332.581085 158.299103,333.623383 158.158951,335.123260 
	C157.912125,337.765228 157.555069,340.419647 157.610535,343.061188 
	C157.678268,346.287842 159.525421,348.039276 162.813522,347.486359 
	C166.791473,346.817444 170.768631,347.180298 174.745117,347.103302 
	C181.858597,346.965546 182.816620,345.909485 182.045044,338.880676 
	C181.900482,337.563782 181.948013,336.110321 180.344437,335.610107 
	C178.866318,335.148956 177.789810,336.008942 176.823608,336.964386 
	C174.225906,339.533112 171.650208,342.124084 168.474915,345.126587 
z"/>
<path fill="#000000" opacity="1.000000" stroke="none" 
	d="
M361.391418,226.243042 
	C358.621368,227.450409 356.230225,228.549057 352.904083,230.077316 
	C349.948975,217.575577 345.760986,205.860977 338.943939,194.513535 
	C344.252228,192.709808 349.030701,191.420685 353.188599,188.697983 
	C355.187286,187.389206 356.258881,189.162048 357.014038,190.628067 
	C361.733276,199.789505 365.782623,209.201141 368.391602,219.231979 
	C369.475555,223.399612 368.956787,225.631241 364.154755,225.467194 
	C363.368469,225.440323 362.565521,225.899704 361.391418,226.243042 
z"/>
<path fill="#000000" opacity="1.000000" stroke="none" 
	d="
M143.323883,227.527069 
	C142.512619,227.197922 142.056366,226.990570 141.582199,226.839508 
	C131.895004,223.753632 131.965515,223.776764 135.080246,213.679001 
	C137.439377,206.030853 140.517731,198.705017 144.210678,191.616165 
	C145.579544,188.988510 147.081207,187.790115 150.034622,189.783615 
	C153.629990,192.210434 157.977386,192.955780 162.965546,194.442291 
	C156.093384,205.582672 151.879822,217.335648 148.837311,229.209290 
	C146.360046,229.728119 145.209930,228.159210 143.323883,227.527069 
z"/>
<path fill="#000000" opacity="1.000000" stroke="none" 
	d="
M208.309769,347.657776 
	C215.263641,351.353638 222.775146,352.515442 229.994614,355.493225 
	C227.680222,359.960999 225.721222,364.145721 225.117065,368.802338 
	C224.836548,370.964325 223.379822,371.514893 221.469467,370.968536 
	C211.514526,368.121460 201.835266,364.592957 192.887558,359.276245 
	C191.434570,358.412872 190.452072,357.357483 191.570435,355.656464 
	C194.146194,351.738800 195.499710,347.291412 196.881729,342.672516 
	C201.371979,343.101776 204.202240,346.410187 208.309769,347.657776 
z"/>
<path fill="#000000" opacity="1.000000" stroke="none" 
	d="
M275.418091,354.077484 
	C285.743958,351.479584 294.981903,347.110931 304.356781,342.286865 
	C306.027985,347.060547 307.395050,351.310516 309.837524,355.070251 
	C310.961090,356.799774 310.591522,358.177795 308.851105,359.249237 
	C299.859772,364.784332 289.908112,367.947510 279.890961,370.930359 
	C278.148376,371.449249 277.010315,370.653442 276.738190,368.779877 
	C276.182770,364.956360 274.820984,361.416473 272.946808,358.057465 
	C271.607483,355.657104 273.069885,354.783508 275.418091,354.077484 
z"/>
<path fill="#000000" opacity="1.000000" stroke="none" 
	d="
M265.873962,239.869904 
	C263.451141,241.974808 261.842957,241.758850 261.800690,238.657639 
	C261.664795,228.681091 261.724152,218.702042 261.664337,208.724213 
	C261.650726,206.457443 262.729828,205.325134 264.916534,205.215088 
	C266.908447,205.114838 268.904663,205.074142 270.899323,205.058929 
	C281.063843,204.981415 281.569794,205.559006 281.102112,215.793869 
	C280.964935,218.796860 280.541809,221.275803 276.522217,220.104294 
	C278.100494,229.627960 270.526306,233.756424 265.873962,239.869904 
z"/>
<path fill="#000000" opacity="1.000000" stroke="none" 
	d="
M285.081421,390.210083 
	C279.837524,391.583801 275.030121,393.200623 268.714233,392.332886 
	C272.962799,387.400848 274.785431,382.147064 277.067596,377.098236 
	C278.334290,374.295959 291.399597,371.547058 294.137360,373.145264 
	C296.187561,374.342102 298.050476,375.916260 297.705353,378.622467 
	C297.233398,382.323029 296.215240,385.909576 292.501343,387.682770 
	C290.279663,388.743500 287.826447,389.319305 285.081421,390.210083 
z"/>
<path fill="#000000" opacity="1.000000" stroke="none" 
	d="
M164.432587,137.339874 
	C168.121262,134.785782 171.507797,132.401123 174.979309,130.147354 
	C176.230301,129.335175 177.763214,128.662872 179.044250,130.097443 
	C180.250275,131.448013 179.190475,132.512512 178.324936,133.544785 
	C178.008621,133.922028 177.653412,134.322418 177.503616,134.774445 
	C176.566620,137.601852 177.559891,141.869019 173.607605,142.542542 
	C170.860580,143.010651 167.804138,141.671738 164.887329,141.132553 
	C161.698288,140.543060 162.471268,139.143280 164.432587,137.339874 
z"/>
<path fill="#000000" opacity="1.000000" stroke="none" 
	d="
M217.607285,112.879929 
	C219.554352,112.059875 221.230042,111.475967 223.101547,112.757362 
	C222.808578,115.301605 220.971298,115.727516 218.968643,115.533508 
	C217.733704,115.413879 216.190338,114.993942 217.607285,112.879929 
z"/>
<path fill="#000000" opacity="1.000000" stroke="none" 
	d="
M289.145935,85.824242 
	C288.019836,87.823448 286.639862,88.971146 284.851013,89.592476 
	C279.296082,91.521889 275.868439,88.623444 276.913483,82.885010 
	C277.061768,82.070915 277.283234,81.269722 277.481995,80.465324 
	C278.222931,77.466934 277.447479,73.182274 282.802643,74.036453 
	C287.785431,74.831215 290.464050,78.205734 289.986206,83.080025 
	C289.906860,83.889145 289.543030,84.670387 289.145935,85.824242 
z"/>
<path fill="#000000" opacity="1.000000" stroke="none" 
	d="
M219.002411,74.561440 
	C223.431168,72.945251 226.936935,73.507668 229.191330,77.528336 
	C231.258530,81.215179 230.098251,85.885277 226.595657,88.053337 
	C223.108887,90.211594 219.896515,89.535263 217.268524,86.507408 
	C214.053818,82.803574 214.582123,78.788994 219.002411,74.561440 
z"/>
<path fill="#000000" opacity="1.000000" stroke="none" 
	d="
M393.965515,156.912415 
	C396.763824,156.149643 398.715698,152.124298 401.643738,155.075653 
	C404.203125,157.655457 405.370026,161.117310 403.714264,164.690735 
	C402.175537,168.011459 399.302277,169.595963 395.594025,169.184448 
	C391.635223,168.745163 389.091980,166.032013 388.293060,162.593536 
	C387.446228,158.949005 391.706970,158.838547 393.965515,156.912415 
z"/>
<path fill="#000000" opacity="1.000000" stroke="none" 
	d="
M422.465759,216.271759 
	C418.755249,219.540039 415.078705,220.008636 411.396606,217.196136 
	C408.831207,215.236618 408.008850,212.114334 408.219513,209.193176 
	C408.443085,206.093613 411.828674,207.083160 413.778229,206.188309 
	C414.218903,205.986038 414.737183,205.868210 415.221985,205.860870 
	C417.846130,205.821136 420.925079,203.114731 422.980499,206.167191 
	C425.016632,209.190964 424.919678,212.752396 422.465759,216.271759 
z"/>
<path fill="#000000" opacity="1.000000" stroke="none" 
	d="
M126.927902,121.632172 
	C128.228745,120.384521 129.243286,119.237793 130.505295,118.536224 
	C132.883026,117.214409 135.082672,117.778229 136.438492,120.135406 
	C138.315979,123.399544 135.646362,125.339760 133.870743,127.364792 
	C131.949417,129.555984 130.320740,128.093430 128.970001,126.518982 
	C127.847824,125.210938 126.034470,124.160194 126.927902,121.632172 
z"/>
<path fill="#000000" opacity="1.000000" stroke="none" 
	d="
M421.239807,251.644257 
	C419.551331,248.484344 417.290985,245.290436 421.735504,243.211670 
	C423.530060,242.372330 426.316650,242.073883 427.692413,244.020126 
	C429.042023,245.929428 428.816864,248.563950 427.590607,250.608917 
	C426.166473,252.983780 423.872559,252.993744 421.239807,251.644257 
z"/>
<path fill="#000000" opacity="1.000000" stroke="none" 
	d="
M407.169556,189.299469 
	C405.407501,187.503403 404.399017,185.709259 404.917664,183.239471 
	C407.912354,182.322845 410.700104,182.614944 413.987640,183.209671 
	C412.537811,186.689102 410.264404,188.331558 407.169556,189.299469 
z"/>
<path fill="#000000" opacity="1.000000" stroke="none" 
	d="
M362.387573,114.169403 
	C362.151733,116.807655 361.637238,119.016960 360.196686,121.136642 
	C357.426483,121.191162 355.864807,119.455276 354.179321,117.203674 
	C356.648254,115.121727 358.480316,112.234535 362.387573,114.169403 
z"/>
</svg>